/* XPM */
static char *inyokaedit[] = {
/* columns rows colors chars-per-pixel */
"32 32 256 2 ",
"   c #39320D",
".  c #2F3E34",
"X  c #6D0600",
"o  c #403903",
"O  c #5D3D00",
"+  c #245500",
"@  c #315712",
"#  c #1D7600",
"$  c #206205",
"%  c #35680E",
"&  c #2E7800",
"*  c #397116",
"=  c #364E2D",
"-  c #3D6033",
";  c #3B6831",
":  c #495917",
">  c #694809",
",  c #724C04",
"<  c #684416",
"1  c #7C5316",
"2  c #7B5309",
"3  c #446A0D",
"4  c #5E621C",
"5  c #447618",
"6  c #6B7B00",
"7  c #747C0B",
"8  c #4D583D",
"9  c #485423",
"0  c #634B24",
"q  c #68592A",
"w  c #6B5A39",
"e  c #765D32",
"r  c #734724",
"t  c #46762B",
"y  c #46772A",
"u  c #4B733D",
"i  c #547A38",
"p  c #68742E",
"a  c #6F6036",
"s  c #434343",
"d  c #4D5450",
"f  c #6D5F43",
"g  c #636F4A",
"h  c #7E6B47",
"j  c #7F714A",
"k  c #7C785F",
"l  c #646865",
"z  c #767978",
"x  c #7A736A",
"c  c #9B1400",
"v  c #AC0203",
"b  c #AB3F00",
"n  c #B52610",
"m  c #FD0005",
"M  c #85470A",
"N  c #964300",
"B  c #8D5900",
"V  c #945D00",
"C  c #9D5100",
"Z  c #944E14",
"A  c #AA410F",
"S  c #B94F00",
"D  c #A85303",
"F  c #BB5C00",
"G  c #BC5100",
"H  c #B54915",
"J  c #8F7502",
"K  c #967F06",
"L  c #8B771F",
"P  c #A56B00",
"I  c #A8700A",
"U  c #BD7B01",
"Y  c #8C7720",
"T  c #927D22",
"R  c #866A39",
"E  c #8E7036",
"W  c #86662B",
"Q  c #B17D3D",
"!  c #C14400",
"~  c #C65303",
"^  c #D45B00",
"/  c #D95D00",
"(  c #C66500",
")  c #E76400",
"_  c #F26400",
"`  c #F87200",
"'  c #C64228",
"]  c #AD4350",
"[  c #B25E5E",
"{  c #937740",
"}  c #8C7E5C",
"|  c #877959",
" . c #AC724F",
".. c #847E66",
"X. c #877866",
"o. c #907666",
"O. c #E45553",
"+. c #FF6A6F",
"@. c #369100",
"#. c #39811F",
"$. c #3D911E",
"%. c #3DA700",
"&. c #459A00",
"*. c #5A9C00",
"=. c #488719",
"-. c #629802",
";. c #698602",
":. c #46AC00",
">. c #52AF00",
",. c #4BBD01",
"<. c #57B804",
"1. c #78B90B",
"2. c #508520",
"3. c #42CB00",
"4. c #53C30E",
"5. c #5DD707",
"6. c #6AC707",
"7. c #6BDA01",
"8. c #6CE30B",
"9. c #588B4D",
"0. c #768B6E",
"q. c #9D8413",
"w. c #AE9405",
"e. c #B39500",
"r. c #B79C00",
"t. c #A08618",
"y. c #AC9416",
"u. c #AA941D",
"i. c #B1A000",
"p. c #BEA617",
"a. c #BDA41E",
"s. c #958026",
"d. c #B68F3E",
"f. c #AB8338",
"g. c #C7850B",
"h. c #C4AB1B",
"j. c #D89B28",
"k. c #DB9436",
"l. c #C2AC2D",
"z. c #C9B32F",
"x. c #C2AF37",
"c. c #DCA031",
"v. c #CCB434",
"b. c #DAC91D",
"n. c #D8C424",
"m. c #8D8247",
"M. c #9C8F4F",
"N. c #978843",
"B. c #88815B",
"V. c #9E8D54",
"C. c #9B9352",
"Z. c #AB8747",
"A. c #B58F47",
"S. c #B79752",
"D. c #AE984A",
"F. c #8D8569",
"G. c #91856B",
"H. c #988D6D",
"J. c #858370",
"K. c #9A8C7A",
"L. c #908C79",
"P. c #9A957A",
"I. c #899376",
"U. c #BE8268",
"Y. c #BC9261",
"T. c #A1967D",
"R. c #C98F49",
"E. c #D8AD5F",
"W. c #E1AD4D",
"Q. c #E8B65A",
"!. c #F68279",
"~. c #C1B26A",
"^. c #DCB266",
"/. c #D9B468",
"(. c #E4BB65",
"). c #E6C67B",
"_. c #847785",
"`. c #7B8281",
"'. c #8F8E85",
"]. c #8C8C8D",
"[. c #868687",
"{. c #819389",
"}. c #8E9795",
"|. c #949494",
" X c #9A9B95",
".X c #9D9D9D",
"XX c #939995",
"oX c #97948D",
"OX c #A09B94",
"+X c #A79B81",
"@X c #AAA38C",
"#X c #A3A094",
"$X c #AAA396",
"%X c #9B9FA5",
"&X c #A49DA8",
"*X c #9DA0A2",
"=X c #A2A2A3",
"-X c #ADADAD",
";X c #A6A8A3",
":X c #ADAFB2",
">X c #ADB1B3",
",X c #B3B3B3",
"<X c #B9B5BD",
"1X c #BBBBBB",
"2X c #B7B8B9",
"3X c #BBB5AA",
"4X c #D0B68D",
"5X c #C9B3A5",
"6X c #A8D3BE",
"7X c #C1C2BE",
"8X c #BEBDC2",
"9X c #BBB9CB",
"0X c #C0B9C8",
"qX c #BEC0C5",
"wX c #B3C1C2",
"eX c #C2C2C2",
"rX c #CBC8C6",
"tX c #C3C3CA",
"yX c #C7C9CB",
"uX c #CBCBCB",
"iX c #CAC4CC",
"pX c #C2C5D3",
"aX c #CBCCD2",
"sX c #C8CBDB",
"dX c #D1CDD4",
"fX c #CFD4DA",
"gX c #CDD2D4",
"hX c #D3D3D3",
"jX c #D8D5D5",
"kX c #D4D6DA",
"lX c #DCDCDC",
"zX c #D7D8DB",
"xX c #E0DFDF",
"cX c #FFFFDA",
"vX c #D2CEE4",
"bX c #D6DAE4",
"nX c #DADDE2",
"mX c #D5D7E3",
"MX c #E2DAF1",
"NX c #E6D9EA",
"BX c #DEE1E3",
"VX c #E4E4E4",
"CX c #E5E6E9",
"ZX c #E5E8EA",
"AX c #EBEBEB",
"SX c #E8E7E8",
"DX c #EDECF2",
"FX c #E8E4F5",
"GX c #EFF0F3",
"HX c #F2F2F3",
"JX c #F5F6FB",
"KX c #F9F6FD",
"LX c #F5FAFD",
"PX c #FDFEFE",
"IX c #F6FCF6",
"UX c None",
/* pixels */
"UXUXUXUXUXUXUXUXUXUXUXUXUXUXUXUXUXUXUXUXUXUXUXUXUXUXUXUXUXUXUXUX",
"UXUXUXUXUXUXJ UXUXUXUXJ UXUXJ UXUXUXUXJ UXUXJ UXUXUXUXUXUXUXUXUX",
"UXUXUXUXUXT p.q y.y.a h.s.s.h.q y.u.q p.L L p.q y.y.UXUXUXUXUXUX",
"UXUXUXUX,XC.n.H.v.v.K.n.V.V.n.T.v.l.G.b.M.M.b.F.x.a.=X;XUXUXUXUX",
"UXUXUX XqXN.w.K.q.q.L.r.C.C.i.z t.u.J.e.m.m.e.k u.K *X,XUXUXUXUX",
"UXUXUX X2X#XP.*X@X@X%XX._._.o.>XP.I.%XB.'.'.| ].J...;X-XUXUXUXUX",
"UXUXUX|.AXPXPXPXvX{.u y 2.=.9.].MXPXPXPXPXPXPXPXPXIXPX2XUXUXUXUX",
"UXUXUX;XPXPXKX|.% @.4.<.5.B 6 ,.t 6XPXDXKXHXAXHXGXGXPXeXUXUXUXUX",
"UXUXUX<XKXPX`.& <.<.y 2.4.7 v 1.6.X ] nXdXzXfXhXkXCXPXuXUXUXUXUX",
"UXUXUX<XPXFXy >.&.% A 4 <.5.-.*.;.C p FXIXHXJXHXKXKXPX7XUXUXUXUX",
"UXUXUX<XPXyX* :.3 M ` H #.6.6.8.7.3.u 0XaXiXuXhXyXjXPXzXUXUXUXUX",
"UXUXUX0XPXsX5 %.< _ C _ Z $.>.&.=.x NXPXPXPXJXHXPXPXHXT.R  .< UX",
"UXUXUXtXPXFXi @.< / _ F ) N g XXpXPXPXPXGXZXLXPXZX@X} U.!.+.' UX",
"UXUXUXdXPXLX X# 1 ~ G _ D 4XPXPXPXKXDXGXPXPXCXT.R Z.5XpXO.m n O ",
"UXUXUXhXPXIXFXt 3 ! ( S R.LXLXLXFXKXPXPXBXP.E f.E.(.k.wX[ c < UX",
"UXUXUXhXPXAXnX[.$ > ^ ^ Y.mXuXsXnXbX-XG.E d./.Q.c.g.I o.r UXUXUX",
"UXUXUXjXPXHXHXPX0.+ Z F Q LXGXLXuX} W A./.Q.c.g.P 2 e $XXXUXUXUX",
"UXUXUXlXKXAXdXuX9X9 @ ~ ( rXmX} { S.(.Q.j.U V , 0 $XHXKX>XUXUXUX",
"UXUXUXxXIXCXHXGXLXbX- 9 b Z.| S.).W.j.U V , h 3XHXLXDXVX>XUXUXUX",
"UXUX].xXHXSXrXuXyXfX&X@ : , ~.cX).U V > w oXaXfX8XnXDXJX2XUXUXUX",
"UXUX[.VXHXSXSXxXGXVXFX>Xo w /.A.d.> f =XgXkXuXgXVXGXAXAX,XUXUXUX",
"UXUX].SXAXSXrXyXyXuX8Xj 0   o R X.OXqX8X8XyXnXAXAXAXlXHX-XUXUXUX",
"UXUX].SXSXSXlXlXjXzXlXjXBX8X- 9 dXkXkXkXnXBXVXxXVXCXzXHX-XUXUXUX",
"UXUX|.HXAXAXHXHXHXHXHXPXHXHXzX= 8 HXCXKXHXAXAXSXAXAXVXIX-XUXUXUX",
"UXUX|.AXlXVXVXlXjXhXrXeXgXuXrXgX. l IXjXSXxXlXlXlXVXjXAX,XUXUXUX",
"UXUX XPXHXKXHXVXzXhXeX1X,X2X0XeXzXd |.PXAXPXHXHXHXJXSXPX7XUXUXUX",
"UXUX|.VXuXjXhXuXeX1X,X,X-X-X1X2XeXeXz uXhXhXjXhXuXjXrXlX2XUXUXUX",
"UXUX|.uX=X,X-X-X-X-X-X-X-X-X-X,X,X-X2X-X-X-X-X-X-X,X;X2X2Xs UXUX",
"UXUXl =X X=X*X.X.X.X.X.X.X.X.X.X=X=X|..X.X.X.X.X.X=X.X;Xz UXUXUX",
"UXUXUXUXUXUXUXUXUXUXUXUXUXUXUXUXUXUXUXUXUXUXUXUXUXUXUXUXUXUXUXUX",
"UXUXUXUXUXUXUXUXUXUXUXUXUXUXUXUXUXUXUXUXUXUXUXUXUXUXUXUXUXUXUXUX",
"UXUXUXUXUXUXUXUXUXUXUXUXUXUXUXUXUXUXUXUXUXUXUXUXUXUXUXUXUXUXUXUX"
};
