/* XPM */
static char *inyokaedit_64x64[] = {
/* columns rows colors chars-per-pixel */
"32 32 256 2 ",
"   c #7B2007",
".  c #6C3E10",
"X  c #3A7D00",
"o  c #386116",
"O  c #346B15",
"+  c #514B0B",
"@  c #48411C",
"#  c #4F4A19",
"$  c #4C5E19",
"%  c #545B1C",
"&  c #60490E",
"*  c #7B550D",
"=  c #6E4F15",
"-  c #724F19",
";  c #655F1F",
":  c #6E511D",
">  c #775618",
",  c #4A6A1B",
"<  c #46791D",
"1  c #497A1D",
"2  c #4C751C",
"3  c #777C0B",
"4  c #555F32",
"5  c #6B522B",
"6  c #78502D",
"7  c #765221",
"8  c #705A30",
"9  c #4B732C",
"0  c #466939",
"q  c #4D723F",
"w  c #507C32",
"e  c #56783A",
"r  c #7F6F2E",
"t  c #78633B",
"y  c #71743A",
"u  c #474C46",
"i  c #555C58",
"p  c #4E6744",
"a  c #597A40",
"s  c #5E6850",
"d  c #716F4D",
"f  c #766646",
"g  c #666666",
"h  c #6E746E",
"j  c #7F7F7F",
"k  c #981800",
"l  c #A10F03",
"z  c #B72813",
"x  c #F5050D",
"c  c #975807",
"v  c #8F4C12",
"b  c #895A17",
"n  c #915719",
"m  c #9A5615",
"M  c #B05500",
"N  c #B25D01",
"B  c #BE5D00",
"V  c #A64B14",
"C  c #AE5611",
"Z  c #876203",
"A  c #96670E",
"S  c #9C6B0F",
"D  c #8C7303",
"F  c #A06D0D",
"G  c #B56102",
"H  c #A87312",
"J  c #AE791A",
"K  c #806F2E",
"L  c #866938",
"P  c #8C723E",
"I  c #92753D",
"U  c #AE7E3D",
"Y  c #C25F00",
"T  c #C45A09",
"R  c #D05F00",
"E  c #C36402",
"W  c #C96502",
"Q  c #D46401",
"!  c #DD6400",
"~  c #DF6800",
"^  c #E16B00",
"/  c #C54329",
"(  c #AF4B57",
")  c #B25D5C",
"_  c #866940",
"`  c #8F7442",
"'  c #87734D",
"]  c #927640",
"[  c #877552",
"{  c #867F5C",
"}  c #8B7D5C",
"|  c #AA7450",
" . c #847863",
".. c #937A67",
"X. c #837F7D",
"o. c #E6595A",
"O. c #FF686C",
"+. c #368106",
"@. c #4A9800",
"#. c #429309",
"$. c #4E891F",
"%. c #46841F",
"&. c #528B19",
"*. c #778604",
"=. c #71990D",
"-. c #7A9713",
";. c #49A007",
":. c #55A904",
">. c #5AAF05",
",. c #57AA0C",
"<. c #5AB30D",
"1. c #58B507",
"2. c #60BB05",
"3. c #6FAB10",
"4. c #75B011",
"5. c #538A28",
"6. c #538D20",
"7. c #578632",
"8. c #5CC50C",
"9. c #63C30C",
"0. c #6CC10C",
"q. c #67C812",
"w. c #6BCD14",
"e. c #6FD211",
"r. c #5B874A",
"t. c #798B6F",
"y. c #778076",
"u. c #7C8973",
"i. c #9B8614",
"p. c #AD940C",
"a. c #B1980E",
"s. c #BF8316",
"d. c #AF991F",
"f. c #AD961B",
"g. c #978325",
"h. c #9A8625",
"j. c #A18D21",
"k. c #AF9920",
"l. c #B09920",
"z. c #BDA621",
"x. c #BEAA32",
"c. c #C4891B",
"v. c #CA8E1E",
"b. c #D59C32",
"n. c #D69F39",
"m. c #CEBB26",
"M. c #918544",
"N. c #9B8F4D",
"B. c #9B8D45",
"V. c #AA8940",
"C. c #AF8B49",
"Z. c #B08C4F",
"A. c #BE8C4C",
"S. c #A4964E",
"D. c #AA9B4D",
"F. c #B3904E",
"G. c #B28B54",
"H. c #BE9A58",
"J. c #B99552",
"K. c #8B8562",
"L. c #8B826B",
"P. c #928162",
"I. c #968668",
"U. c #928B68",
"Y. c #988A6E",
"T. c #998E65",
"R. c #9B9067",
"E. c #9D9269",
"W. c #8E8A72",
"Q. c #918670",
"!. c #928D75",
"~. c #9A9577",
"^. c #B9866B",
"/. c #B69F62",
"(. c #B49161",
"). c #D69B46",
"_. c #DEAE55",
"`. c #DFB059",
"'. c #E1B35E",
"]. c #C6A962",
"[. c #DCB56E",
"{. c #C2AE70",
"}. c #D8B874",
"|. c #E1B461",
" X c #E2BE78",
".X c #E1B971",
"XX c #DFC177",
"oX c #7D8180",
"OX c #8D8D8C",
"+X c #8D968A",
"@X c #839183",
"#X c #939286",
"$X c #92998E",
"%X c #939493",
"&X c #969992",
"*X c #9D9991",
"=X c #9C9C9C",
"-X c #99969C",
";X c #AB9F88",
":X c #A69D86",
">X c #A5A188",
",X c #AAA69F",
"<X c #A5A296",
"1X c #B1A592",
"2X c #A4A4A3",
"3X c #ADADAD",
"4X c #BDB6A8",
"5X c #B4B2AD",
"6X c #B3B3B3",
"7X c #B7BFBF",
"8X c #BBBBBB",
"9X c #FA8680",
"0X c #CEB58C",
"qX c #CDB8AA",
"wX c #C1BCB1",
"eX c #ACC0B3",
"rX c #F4ECBC",
"tX c #BEBDC1",
"yX c #C3BFC7",
"uX c #C4C4C4",
"iX c #CAC8C6",
"pX c #C5C5CA",
"aX c #C8C6CD",
"sX c #C7C8CA",
"dX c #CCCCCC",
"fX c #D1CFC9",
"gX c #C8CAD1",
"hX c #D2CED6",
"jX c #CFD0D2",
"kX c #D4D4D4",
"lX c #D6D7DA",
"zX c #D6D8DA",
"xX c #DCDCDC",
"cX c #E2E1DF",
"vX c #DFDAE4",
"bX c #D9D6E2",
"nX c #E0DBE4",
"mX c #E4E4E4",
"MX c #E8E6E7",
"NX c #EAE9E6",
"BX c #E5E3EA",
"VX c #E5E8E9",
"CX c #EBEBEB",
"ZX c #F0EFEE",
"AX c #F0F1EF",
"SX c #EAE6F0",
"DX c #ECEEF2",
"FX c #F0EEF1",
"GX c #EFF1F3",
"HX c #F3F3F3",
"JX c #F7F8F6",
"KX c #F5F6F8",
"LX c #F6F9FD",
"PX c #FDFDFD",
"IX c #F9F5F7",
"UX c None",
/* pixels */
"UXUXUXUXUXUXUXUXUXUXUXUXUXUXUXUXUXUXUXUXUXUXUXUXUXUXUXUXUXUXUXUX",
"UXUXUXUXUXUXD UXUXUXUXD UXUXD UXUXUXUXD UXUXD UXUXUXUXUXUXUXUXUX",
"UXUXUXUXUXh.z.r l.l.r z.g.g.z.r d.d.K z.g.g.z.K l.d.UXUXUXUXUXUX",
"UXUXUXUX6XD.m.E.x.x.E.m.S.S.m.E.x.x.R.m.S.S.m.T.x.z.2X2XUXUXUXUX",
"UXUXUX=XtXB.p.U.j.j.U.a.N.N.a.K.j.j.K.p.M.M.p.} j.i.<X3XUXUXUXUX",
"UXUXUX=X8X<X~.2X>X>X=X .oXW.L.2X~.!.&XU.#X#XK.$XW.W.2X3XUXUXUXUX",
"UXUXUX=XNXPXPXPXaXoXa 7.5.5.r.$XbXPXJXLXKXIXLXHXLXHXKX8XUXUXUXUX",
"UXUXUX2XKXPXGX+X< @.1.2.<.Z *.<.7.eXPXGXGXAXAXGXGXHXPXuXUXUXUXUX",
"UXUXUX6XJXPXy.X >.<.< &.8.3 l 4.0.  ( fXjXdXdXdXdXVXPXuXUXUXUXUX",
"UXUXUX8XPXBX9 :.,., V ; <.9.=.3.-.c y BXAXZXAXZXZXGXPXiXUXUXUXUX",
"UXUXUX8XPXaX< :.2 v ^ C %.0.q.w.e.8.r.yXfXdXdXdXiXmXPXlXUXUXUXUX",
"UXUXUX8XPXhX1 ;.: ! N ! n $.<.:.6.t.vXPXGXKXHXAXKXPXNX:X_ | 7 UX",
"UXUXUXuXPXSXe #.: Q ! N Q m d $XpXKXJXAXAXZXKXPXmX1XP.^.9XO./ UX",
"UXUXUXiXPXPX$XX > B E ~ N 0XIXPXLXAXZXAXKXPXcX;XP Z.qXpXo.x z & ",
"UXUXUXdXPXKXvXw , T W N A.LXHXAXZXZXKXLXxX:X` C.[.`.).7X) k = UX",
"UXUXUXkXKXNXkXOXO - Q R (.aXuXuXdXjX5XY.] F.[.|.n.v.J ..6 UXUXUX",
"UXUXUXzXKXDXNXCXt.o m Y U MXCXFXiXI.L J.[.|.b.v.H * t 1X&XUXUXUX",
"UXUXUXxXKXCXsXdXtXp $ T E wXdXP.I H..X`.b.c.F * 8 <XCXKX3XUXUXUX",
"UXUX%XxXAXZXMXmXZXhXq $ M Z.} /. X_.b.c.S * ' 4XNXGXNXNX6XUXUXUX",
"UXUX%XcXGXNXdXiXuXdX2X0 % b {.rXXXs.A * f *XsXdXuXzXNXCX6XUXUXUX",
"UXUXOXmXZXNXmXmXmXxXmX3X# t }.].V.= f ,XdXjXfXlXxXmXBXCX6XUXUXUX",
"UXUXOXMXZXVXuXuXuXuX6X[ 5 @ + t Q.*X8XtXuXdXkXxXMXMXmXCX3XUXUXUX",
"UXUX%XMXNXNXxXxXxXvXkXfXxX8X0 4 dXzXdXjXlXxXmXmXmXmXmXZX6XUXUXUX",
"UXUX=XNXVXVXCXCXCXNXNXZXBXFXhXp s MXMXmXmXmXmXmXmXmXcXZX3XUXUXUX",
"UXUX&XNXmXmXmXmXxXkXfXdXiXuXjXuXu h CXcXcXcXvXmXxXcXxXZX6XUXUXUX",
"UXUX=XGXCXCXBXxXjXuX8X6X3X3X6XuXuXi %XGXVXNXVXNXVXVXVXHX8XUXUXUX",
"UXUX=XMXkXlXkXjXdXtX8X6X6X6X6X8XdXuXy.jXlXkXkXkXkXlXkXxXyXUXUXUX",
"UXUXOXuX3X3X3X3X3X3X6X6X3X3X3X6X3X3X8X3X3X3X3X6X3X3X3X6X6Xu UXUX",
"UXUXg =X=X=X=X=X=X=X=X=X=X=X=X=X=X=X=X=X=X=X=X=X=X=X=X2XX.UXUXUX",
"UXUXUXUXUXUXUXUXUXUXUXUXUXUXUXUXUXUXUXUXUXUXUXUXUXUXUXUXUXUXUXUX",
"UXUXUXUXUXUXUXUXUXUXUXUXUXUXUXUXUXUXUXUXUXUXUXUXUXUXUXUXUXUXUXUX",
"UXUXUXUXUXUXUXUXUXUXUXUXUXUXUXUXUXUXUXUXUXUXUXUXUXUXUXUXUXUXUXUX"
};
